<?xml version="1.0" encoding="UTF-8" standalone="no"?><!DOCTYPE svg PUBLIC "-//W3C//DTD SVG 1.1//EN" "http://www.w3.org/Graphics/SVG/1.1/DTD/svg11.dtd"><svg width="100%" height="100%" viewBox="0 0 4000 2000" version="1.1" xmlns="http://www.w3.org/2000/svg" xmlns:xlink="http://www.w3.org/1999/xlink" xml:space="preserve" xmlns:serif="http://www.serif.com/" style="fill-rule:evenodd;clip-rule:evenodd;stroke-linejoin:round;stroke-miterlimit:2;"><rect x="0" y="0" width="6.25" height="6.25" style="fill:#e1d7d5;"/><rect x="562.5" y="1312.5" width="875" height="62.5" style="fill:#5648ed;"/><rect x="562.5" y="1375" width="875" height="62.5" style="fill:#5648ed;"/><rect x="562.5" y="1437.5" width="875" height="62.5" style="fill:#5648ed;"/><rect x="562.5" y="1500" width="875" height="62.5" style="fill:#5648ed;"/><rect x="562.5" y="1562.5" width="125" height="62.5" style="fill:#5648ed;"/><rect x="750" y="1562.5" width="687.5" height="62.5" style="fill:#5648ed;"/><rect x="562.5" y="1625" width="125" height="62.5" style="fill:#5648ed;"/><rect x="750" y="1625" width="687.5" height="62.5" style="fill:#5648ed;"/><rect x="562.5" y="1687.5" width="125" height="62.5" style="fill:#5648ed;"/><rect x="750" y="1687.5" width="687.5" height="62.5" style="fill:#5648ed;"/><rect x="562.5" y="1750" width="125" height="62.5" style="fill:#5648ed;"/><rect x="750" y="1750" width="687.5" height="62.5" style="fill:#5648ed;"/><rect x="562.5" y="1812.5" width="125" height="62.5" style="fill:#5648ed;"/><rect x="750" y="1812.5" width="687.5" height="62.5" style="fill:#5648ed;"/><rect x="562.5" y="1875" width="125" height="62.5" style="fill:#5648ed;"/><rect x="750" y="1875" width="687.5" height="62.5" style="fill:#5648ed;"/><rect x="562.5" y="1937.5" width="125" height="62.5" style="fill:#5648ed;"/><rect x="750" y="1937.5" width="687.5" height="62.5" style="fill:#5648ed;"/><rect x="1000" y="1437.5" width="62.5" height="62.5" style="fill:#ffc110;"/><rect x="875" y="1500" width="62.5" height="62.5" style="fill:#ffc110;"/><rect x="1125" y="1500" width="62.5" height="62.5" style="fill:#ffc110;"/><rect x="937.5" y="1562.5" width="187.5" height="62.5" style="fill:#ffc110;"/><rect x="812.5" y="1625" width="62.5" height="62.5" style="fill:#ffc110;"/><rect x="937.5" y="1625" width="187.5" height="62.5" style="fill:#ffc110;"/><rect x="1187.5" y="1625" width="62.5" height="62.5" style="fill:#ffc110;"/><rect x="375" y="312.5" width="187.5" height="62.5" style="fill:#7d635e;"/><rect x="1187.5" y="312.5" width="187.5" height="62.5" style="fill:#7d635e;"/><rect x="375" y="375" width="62.5" height="62.5" style="fill:#7d635e;"/><rect x="437.5" y="375" width="125" height="62.5" style="fill:#f38b7c;"/><rect x="562.5" y="375" width="62.5" height="62.5" style="fill:#7d635e;"/><rect x="1125" y="375" width="62.5" height="62.5" style="fill:#7d635e;"/><rect x="1187.5" y="375" width="125" height="62.5" style="fill:#f38b7c;"/><rect x="1312.5" y="375" width="62.5" height="62.5" style="fill:#7d635e;"/><rect x="375" y="437.5" width="62.5" height="62.5" style="fill:#7d635e;"/><rect x="437.5" y="437.5" width="187.5" height="62.5" style="fill:#f38b7c;"/><rect x="625" y="437.5" width="62.5" height="62.5" style="fill:#7d635e;"/><rect x="1062.5" y="437.5" width="62.5" height="62.5" style="fill:#7d635e;"/><rect x="1125" y="437.5" width="187.5" height="62.5" style="fill:#f38b7c;"/><rect x="1312.5" y="437.5" width="62.5" height="62.5" style="fill:#7d635e;"/><rect x="437.5" y="500" width="62.5" height="62.5" style="fill:#7d635e;"/><rect x="500" y="500" width="187.5" height="62.5" style="fill:#f38b7c;"/><rect x="687.5" y="500" width="62.5" height="62.5" style="fill:#7d635e;"/><rect x="1000" y="500" width="62.5" height="62.5" style="fill:#7d635e;"/><rect x="1062.5" y="500" width="187.5" height="62.5" style="fill:#f38b7c;"/><rect x="1250" y="500" width="62.5" height="62.5" style="fill:#7d635e;"/><rect x="500" y="562.5" width="62.5" height="62.5" style="fill:#7d635e;"/><rect x="562.5" y="562.5" width="125" height="62.5" style="fill:#f38b7c;"/><rect x="687.5" y="562.5" width="125" height="62.5" style="fill:#7d635e;"/><rect x="937.5" y="562.5" width="125" height="62.5" style="fill:#7d635e;"/><rect x="1062.5" y="562.5" width="125" height="62.5" style="fill:#f38b7c;"/><rect x="1187.5" y="562.5" width="62.5" height="62.5" style="fill:#7d635e;"/><rect x="562.5" y="625" width="625" height="62.5" style="fill:#7d635e;"/><rect x="562.5" y="687.5" width="500" height="62.5" style="fill:#7d635e;"/><rect x="562.5" y="750" width="500" height="62.5" style="fill:#7d635e;"/><rect x="562.5" y="812.5" width="500" height="62.5" style="fill:#7d635e;"/><rect x="562.5" y="875" width="500" height="62.5" style="fill:#7d635e;"/><rect x="562.5" y="937.5" width="375" height="62.5" style="fill:#7d635e;"/><rect x="937.5" y="937.5" width="500" height="62.5" style="fill:#d4b7b2;"/><rect x="1437.5" y="937.5" width="187.5" height="62.5"/><rect x="562.5" y="1000" width="375" height="62.5" style="fill:#7d635e;"/><rect x="937.5" y="1000" width="500" height="62.5" style="fill:#d4b7b2;"/><rect x="1437.5" y="1000" width="187.5" height="62.5"/><rect x="562.5" y="1062.5" width="375" height="62.5" style="fill:#7d635e;"/><rect x="937.5" y="1062.5" width="687.5" height="62.5" style="fill:#d4b7b2;"/><rect x="562.5" y="1125" width="375" height="62.5" style="fill:#7d635e;"/><rect x="937.5" y="1125" width="125" height="62.5"/><rect x="1062.5" y="1125" width="562.5" height="62.5" style="fill:#d4b7b2;"/><rect x="562.5" y="1187.5" width="375" height="62.5" style="fill:#7d635e;"/><rect x="937.5" y="1187.5" width="687.5" height="62.5" style="fill:#d4b7b2;"/><rect x="562.5" y="1250" width="375" height="62.5" style="fill:#7d635e;"/><rect x="937.5" y="1250" width="687.5" height="62.5" style="fill:#d4b7b2;"/><rect x="625" y="687.5" width="375" height="62.5"/><rect x="1062.5" y="687.5" width="375" height="62.5"/><rect x="625" y="750" width="187.5" height="62.5"/><rect x="812.5" y="750" width="62.5" height="62.5" style="fill:#ff0e0e;"/><rect x="875" y="750" width="125" height="62.5"/><rect x="1062.5" y="750" width="187.5" height="62.5"/><rect x="1250" y="750" width="62.5" height="62.5" style="fill:#ff0e0e;"/><rect x="1312.5" y="750" width="125" height="62.5"/><rect x="437.5" y="812.5" width="1000" height="62.5"/><rect x="437.5" y="875" width="62.5" height="62.5"/><rect x="625" y="875" width="62.5" height="62.5"/><rect x="687.5" y="875" width="62.5" height="62.5" style="fill:#0adc4d;"/><rect x="750" y="875" width="125" height="62.5"/><rect x="875" y="875" width="62.5" height="62.5" style="fill:#1929f4;"/><rect x="937.5" y="875" width="62.5" height="62.5"/><rect x="1062.5" y="875" width="62.5" height="62.5"/><rect x="1125" y="875" width="62.5" height="62.5" style="fill:#0adc4d;"/><rect x="1187.5" y="875" width="125" height="62.5"/><rect x="1312.5" y="875" width="62.5" height="62.5" style="fill:#1929f4;"/><rect x="1375" y="875" width="62.5" height="62.5"/><rect x="437.5" y="937.5" width="62.5" height="62.5"/><rect x="625" y="937.5" width="375" height="62.5"/><rect x="1062.5" y="937.5" width="375" height="62.5"/><rect x="625" y="1000" width="375" height="62.5"/><rect x="1062.5" y="1000" width="375" height="62.5"/><rect x="1000" y="0" width="6.25" height="6.25" style="fill:#e1d7d5;"/><rect x="1562.5" y="1312.5" width="875" height="62.5" style="fill:#c54e38;"/><rect x="1562.5" y="1375" width="875" height="62.5" style="fill:#c54e38;"/><rect x="1562.5" y="1437.5" width="875" height="62.5" style="fill:#c54e38;"/><rect x="1562.5" y="1500" width="875" height="62.5" style="fill:#c54e38;"/><rect x="1562.5" y="1562.5" width="125" height="62.5" style="fill:#c54e38;"/><rect x="1750" y="1562.5" width="687.5" height="62.5" style="fill:#c54e38;"/><rect x="1562.5" y="1625" width="125" height="62.5" style="fill:#c54e38;"/><rect x="1750" y="1625" width="687.5" height="62.5" style="fill:#c54e38;"/><rect x="1562.5" y="1687.5" width="125" height="62.5" style="fill:#c54e38;"/><rect x="1750" y="1687.5" width="687.5" height="62.5" style="fill:#c54e38;"/><rect x="1562.5" y="1750" width="125" height="62.5" style="fill:#c54e38;"/><rect x="1750" y="1750" width="687.5" height="62.5" style="fill:#c54e38;"/><rect x="1562.5" y="1812.5" width="125" height="62.5" style="fill:#c54e38;"/><rect x="1750" y="1812.5" width="687.5" height="62.5" style="fill:#c54e38;"/><rect x="1562.5" y="1875" width="125" height="62.5" style="fill:#c54e38;"/><rect x="1750" y="1875" width="687.5" height="62.5" style="fill:#c54e38;"/><rect x="1562.5" y="1937.5" width="125" height="62.5" style="fill:#c54e38;"/><rect x="1750" y="1937.5" width="687.5" height="62.5" style="fill:#c54e38;"/><rect x="1812.5" y="1437.5" width="437.5" height="62.5" style="fill:#604666;"/><rect x="1750" y="1500" width="62.5" height="62.5" style="fill:#604666;"/><rect x="2250" y="1500" width="62.5" height="62.5" style="fill:#604666;"/><rect x="1750" y="1562.5" width="62.5" height="62.5" style="fill:#604666;"/><rect x="1875" y="1562.5" width="125" height="62.5" style="fill:#604666;"/><rect x="2062.5" y="1562.5" width="125" height="62.5" style="fill:#604666;"/><rect x="2250" y="1562.5" width="62.5" height="62.5" style="fill:#604666;"/><rect x="1750" y="1625" width="62.5" height="62.5" style="fill:#604666;"/><rect x="1875" y="1625" width="62.5" height="62.5" style="fill:#604666;"/><rect x="2062.5" y="1625" width="62.5" height="62.5" style="fill:#604666;"/><rect x="2250" y="1625" width="62.5" height="62.5" style="fill:#604666;"/><rect x="1750" y="1687.5" width="62.5" height="62.5" style="fill:#604666;"/><rect x="1875" y="1687.5" width="125" height="62.5" style="fill:#604666;"/><rect x="2062.5" y="1687.5" width="125" height="62.5" style="fill:#604666;"/><rect x="2250" y="1687.5" width="62.5" height="62.5" style="fill:#604666;"/><rect x="1750" y="1750" width="62.5" height="62.5" style="fill:#604666;"/><rect x="2250" y="1750" width="62.5" height="62.5" style="fill:#604666;"/><rect x="1812.5" y="1812.5" width="437.5" height="62.5" style="fill:#604666;"/><rect x="2125" y="125" width="62.5" height="62.5" style="fill:#552e05;"/><rect x="2125" y="187.5" width="62.5" height="62.5" style="fill:#552e05;"/><rect x="2500" y="187.5" width="62.5" height="62.5" style="fill:#552e05;"/><rect x="2062.5" y="250" width="62.5" height="62.5" style="fill:#552e05;"/><rect x="2375" y="250" width="125" height="62.5" style="fill:#552e05;"/><rect x="1437.5" y="312.5" width="62.5" height="62.5" style="fill:#049d43;"/><rect x="1562.5" y="312.5" width="62.5" height="62.5" style="fill:#049d43;"/><rect x="1687.5" y="312.5" width="62.5" height="62.5" style="fill:#049d43;"/><rect x="2062.5" y="312.5" width="62.5" height="62.5" style="fill:#552e05;"/><rect x="2250" y="312.5" width="125" height="62.5" style="fill:#552e05;"/><rect x="1375" y="375" width="62.5" height="62.5" style="fill:#049d43;"/><rect x="1437.5" y="375" width="62.5" height="62.5" style="fill:#0b5027;"/><rect x="1500" y="375" width="62.5" height="62.5" style="fill:#049d43;"/><rect x="1562.5" y="375" width="62.5" height="62.5" style="fill:#0b5027;"/><rect x="1625" y="375" width="62.5" height="62.5" style="fill:#049d43;"/><rect x="1687.5" y="375" width="62.5" height="62.5" style="fill:#0b5027;"/><rect x="1750" y="375" width="62.5" height="62.5" style="fill:#049d43;"/><rect x="1937.5" y="375" width="125" height="62.5" style="fill:#a86f60;"/><rect x="2062.5" y="375" width="187.5" height="62.5" style="fill:#f8ddb0;"/><rect x="2250" y="375" width="187.5" height="62.5" style="fill:#fd8b5b;"/><rect x="1312.5" y="437.5" width="62.5" height="62.5" style="fill:#049d43;"/><rect x="1375" y="437.5" width="62.5" height="62.5" style="fill:#0b5027;"/><rect x="1437.5" y="437.5" width="62.5" height="62.5" style="fill:#049d43;"/><rect x="1500" y="437.5" width="125" height="62.5" style="fill:#0b5027;"/><rect x="1625" y="437.5" width="187.5" height="62.5" style="fill:#fd8b5b;"/><rect x="1812.5" y="437.5" width="187.5" height="62.5" style="fill:#a86f60;"/><rect x="2000" y="437.5" width="375" height="62.5" style="fill:#f8ddb0;"/><rect x="2375" y="437.5" width="125" height="62.5" style="fill:#fd8b5b;"/><rect x="1250" y="500" width="62.5" height="62.5" style="fill:#049d43;"/><rect x="1312.5" y="500" width="62.5" height="62.5" style="fill:#0b5027;"/><rect x="1375" y="500" width="62.5" height="62.5" style="fill:#049d43;"/><rect x="1437.5" y="500" width="125" height="62.5" style="fill:#0b5027;"/><rect x="1562.5" y="500" width="125" height="62.5" style="fill:#fd8b5b;"/><rect x="1687.5" y="500" width="250" height="62.5" style="fill:#e9265c;"/><rect x="1937.5" y="500" width="187.5" height="62.5" style="fill:#f8ddb0;"/><rect x="2125" y="500" width="187.5" height="62.5" style="fill:#ffa21e;"/><rect x="2312.5" y="500" width="125" height="62.5" style="fill:#f8ddb0;"/><rect x="2437.5" y="500" width="62.5" height="62.5" style="fill:#fd8b5b;"/><rect x="2500" y="500" width="125" height="62.5" style="fill:#a86f60;"/><rect x="1250" y="562.5" width="62.5" height="62.5" style="fill:#049d43;"/><rect x="1312.5" y="562.5" width="62.5" height="62.5" style="fill:#0b5027;"/><rect x="1375" y="562.5" width="62.5" height="62.5" style="fill:#049d43;"/><rect x="1437.5" y="562.5" width="62.5" height="62.5" style="fill:#0b5027;"/><rect x="1500" y="562.5" width="125" height="62.5" style="fill:#fd8b5b;"/><rect x="1625" y="562.5" width="375" height="62.5" style="fill:#e9265c;"/><rect x="2000" y="562.5" width="62.5" height="62.5" style="fill:#f8ddb0;"/><rect x="2062.5" y="562.5" width="62.5" height="62.5" style="fill:#ffa21e;"/><rect x="2125" y="562.5" width="187.5" height="62.5" style="fill:#ffc925;"/><rect x="2312.5" y="562.5" width="62.5" height="62.5" style="fill:#ffa21e;"/><rect x="2375" y="562.5" width="62.5" height="62.5" style="fill:#f8ddb0;"/><rect x="2437.5" y="562.5" width="62.5" height="62.5" style="fill:#fd8b5b;"/><rect x="2500" y="562.5" width="187.5" height="62.5" style="fill:#a86f60;"/><rect x="1125" y="625" width="1750" height="62.5" style="fill:#fffdf2;"/><rect x="1187.5" y="687.5" width="1625" height="62.5" style="fill:#fffdf2;"/><rect x="1187.5" y="750" width="1625" height="62.5" style="fill:#b92b3c;"/><rect x="1250" y="812.5" width="1500" height="62.5" style="fill:#b92b3c;"/><rect x="1250" y="875" width="1500" height="62.5" style="fill:#fffdf2;"/><rect x="1312.5" y="937.5" width="1375" height="62.5" style="fill:#b92b3c;"/><rect x="1312.5" y="1000" width="1375" height="62.5" style="fill:#fffdf2;"/><rect x="1375" y="1062.5" width="1250" height="62.5" style="fill:#fffdf2;"/><rect x="1437.5" y="1125" width="437.5" height="62.5" style="fill:#fffdf2;"/><rect x="1875" y="1125" width="437.5" height="62.5" style="fill:#b92b3c;"/><rect x="2312.5" y="1125" width="250" height="62.5" style="fill:#fffdf2;"/><rect x="1500" y="1187.5" width="1000" height="62.5" style="fill:#fffdf2;"/><rect x="1625" y="1250" width="750" height="62.5" style="fill:#fffdf2;"/><rect x="1625" y="687.5" width="375" height="62.5" style="fill:#e8705b;"/><rect x="2062.5" y="687.5" width="375" height="62.5" style="fill:#e8705b;"/><rect x="1625" y="750" width="62.5" height="62.5" style="fill:#e8705b;"/><rect x="1687.5" y="750" width="125" height="62.5" style="fill:#fff;"/><rect x="1812.5" y="750" width="125" height="62.5"/><rect x="1937.5" y="750" width="62.5" height="62.5" style="fill:#e8705b;"/><rect x="2062.5" y="750" width="62.5" height="62.5" style="fill:#e8705b;"/><rect x="2125" y="750" width="125" height="62.5" style="fill:#fff;"/><rect x="2250" y="750" width="125" height="62.5"/><rect x="2375" y="750" width="62.5" height="62.5" style="fill:#e8705b;"/><rect x="1437.5" y="812.5" width="250" height="62.5" style="fill:#e8705b;"/><rect x="1687.5" y="812.5" width="125" height="62.5" style="fill:#fff;"/><rect x="1812.5" y="812.5" width="125" height="62.5"/><rect x="1937.5" y="812.5" width="187.5" height="62.5" style="fill:#e8705b;"/><rect x="2125" y="812.5" width="125" height="62.5" style="fill:#fff;"/><rect x="2250" y="812.5" width="125" height="62.5"/><rect x="2375" y="812.5" width="62.5" height="62.5" style="fill:#e8705b;"/><rect x="1437.5" y="875" width="62.5" height="62.5" style="fill:#e8705b;"/><rect x="1625" y="875" width="62.5" height="62.5" style="fill:#e8705b;"/><rect x="1687.5" y="875" width="125" height="62.5" style="fill:#fff;"/><rect x="1812.5" y="875" width="125" height="62.5"/><rect x="1937.5" y="875" width="62.5" height="62.5" style="fill:#e8705b;"/><rect x="2062.5" y="875" width="62.5" height="62.5" style="fill:#e8705b;"/><rect x="2125" y="875" width="125" height="62.5" style="fill:#fff;"/><rect x="2250" y="875" width="125" height="62.5"/><rect x="2375" y="875" width="62.5" height="62.5" style="fill:#e8705b;"/><rect x="1437.5" y="937.5" width="62.5" height="62.5" style="fill:#e8705b;"/><rect x="1625" y="937.5" width="62.5" height="62.5" style="fill:#e8705b;"/><rect x="1687.5" y="937.5" width="125" height="62.5" style="fill:#fff;"/><rect x="1812.5" y="937.5" width="125" height="62.5"/><rect x="1937.5" y="937.5" width="62.5" height="62.5" style="fill:#e8705b;"/><rect x="2062.5" y="937.5" width="62.5" height="62.5" style="fill:#e8705b;"/><rect x="2125" y="937.5" width="125" height="62.5" style="fill:#fff;"/><rect x="2250" y="937.5" width="125" height="62.5"/><rect x="2375" y="937.5" width="62.5" height="62.5" style="fill:#e8705b;"/><rect x="1625" y="1000" width="375" height="62.5" style="fill:#e8705b;"/><rect x="2062.5" y="1000" width="375" height="62.5" style="fill:#e8705b;"/><rect x="2000" y="0" width="6.25" height="6.25" style="fill:#e1d7d5;"/><rect x="2562.5" y="1312.5" width="875" height="62.5" style="fill:#63a0f9;"/><rect x="2562.5" y="1375" width="875" height="62.5" style="fill:#63a0f9;"/><rect x="2562.5" y="1437.5" width="875" height="62.5" style="fill:#63a0f9;"/><rect x="2562.5" y="1500" width="875" height="62.5" style="fill:#63a0f9;"/><rect x="2562.5" y="1562.5" width="125" height="62.5" style="fill:#63a0f9;"/><rect x="2750" y="1562.5" width="687.5" height="62.5" style="fill:#63a0f9;"/><rect x="2562.5" y="1625" width="125" height="62.5" style="fill:#63a0f9;"/><rect x="2750" y="1625" width="687.5" height="62.5" style="fill:#63a0f9;"/><rect x="2562.5" y="1687.5" width="125" height="62.5" style="fill:#63a0f9;"/><rect x="2750" y="1687.5" width="687.5" height="62.5" style="fill:#63a0f9;"/><rect x="2562.5" y="1750" width="125" height="62.5" style="fill:#63a0f9;"/><rect x="2750" y="1750" width="687.5" height="62.5" style="fill:#63a0f9;"/><rect x="2562.5" y="1812.5" width="125" height="62.5" style="fill:#63a0f9;"/><rect x="2750" y="1812.5" width="687.5" height="62.5" style="fill:#63a0f9;"/><rect x="2562.5" y="1875" width="125" height="62.5" style="fill:#63a0f9;"/><rect x="2750" y="1875" width="687.5" height="62.5" style="fill:#63a0f9;"/><rect x="2562.5" y="1937.5" width="125" height="62.5" style="fill:#63a0f9;"/><rect x="2750" y="1937.5" width="687.5" height="62.5" style="fill:#63a0f9;"/><rect x="2562.5" y="1312.5" width="125" height="62.5" style="fill:#ffef16;"/><rect x="2812.5" y="1312.5" width="62.5" height="62.5" style="fill:#ffef16;"/><rect x="3125" y="1312.5" width="62.5" height="62.5" style="fill:#ffef16;"/><rect x="3375" y="1312.5" width="62.5" height="62.5" style="fill:#ffef16;"/><rect x="2562.5" y="1375" width="125" height="62.5" style="fill:#ffef16;"/><rect x="2875" y="1375" width="250" height="62.5" style="fill:#ffef16;"/><rect x="3375" y="1375" width="62.5" height="62.5" style="fill:#ffef16;"/><rect x="2562.5" y="1437.5" width="187.5" height="62.5" style="fill:#ffef16;"/><rect x="3312.5" y="1437.5" width="125" height="62.5" style="fill:#ffef16;"/><rect x="2562.5" y="1500" width="187.5" height="62.5" style="fill:#ffef16;"/><rect x="3312.5" y="1500" width="125" height="62.5" style="fill:#ffef16;"/><rect x="2562.5" y="1562.5" width="125" height="62.5" style="fill:#ffef16;"/><rect x="2812.5" y="1562.5" width="62.5" height="62.5" style="fill:#ffef16;"/><rect x="2937.5" y="1562.5" width="62.5" height="62.5" style="fill:#ffef16;"/><rect x="3187.5" y="1562.5" width="62.5" height="62.5" style="fill:#ffef16;"/><rect x="3312.5" y="1562.5" width="125" height="62.5" style="fill:#ffef16;"/><rect x="2562.5" y="1625" width="125" height="62.5" style="fill:#ffef16;"/><rect x="2875" y="1625" width="62.5" height="62.5" style="fill:#ffef16;"/><rect x="3000" y="1625" width="125" height="62.5" style="fill:#ffef16;"/><rect x="3187.5" y="1625" width="62.5" height="62.5" style="fill:#ffef16;"/><rect x="3312.5" y="1625" width="125" height="62.5" style="fill:#ffef16;"/><rect x="2562.5" y="1687.5" width="125" height="62.5" style="fill:#ffef16;"/><rect x="2875" y="1687.5" width="62.5" height="62.5" style="fill:#ffef16;"/><rect x="3000" y="1687.5" width="125" height="62.5" style="fill:#ffef16;"/><rect x="3312.5" y="1687.5" width="125" height="62.5" style="fill:#ffef16;"/><rect x="2562.5" y="1750" width="125" height="62.5" style="fill:#ffef16;"/><rect x="3187.5" y="1750" width="62.5" height="62.5" style="fill:#ffef16;"/><rect x="3312.5" y="1750" width="125" height="62.5" style="fill:#ffef16;"/><rect x="2562.5" y="1812.5" width="125" height="62.5" style="fill:#ffef16;"/><rect x="3312.5" y="1812.5" width="125" height="62.5" style="fill:#ffef16;"/><rect x="2562.5" y="1875" width="125" height="62.5" style="fill:#ffef16;"/><rect x="3312.5" y="1875" width="125" height="62.5" style="fill:#ffef16;"/><rect x="2562.5" y="1937.5" width="125" height="62.5" style="fill:#ffef16;"/><rect x="3312.5" y="1937.5" width="125" height="62.5" style="fill:#ffef16;"/><rect x="3000" y="375" width="62.5" height="62.5" style="fill:#abaaa8;"/><rect x="2625" y="437.5" width="437.5" height="62.5" style="fill:#abaaa8;"/><rect x="3062.5" y="437.5" width="62.5" height="62.5" style="fill:#fff;"/><rect x="3125" y="437.5" width="312.5" height="62.5" style="fill:#abaaa8;"/><rect x="2812.5" y="500" width="375" height="62.5" style="fill:#757576;"/><rect x="2187.5" y="562.5" width="125" height="62.5" style="fill:#648df9;"/><rect x="2312.5" y="562.5" width="187.5" height="62.5" style="fill:#5a65fa;"/><rect x="2562.5" y="562.5" width="125" height="62.5" style="fill:#f78a18;"/><rect x="2687.5" y="562.5" width="625" height="62.5" style="fill:#ffb913;"/><rect x="3312.5" y="562.5" width="125" height="62.5" style="fill:#ffc925;"/><rect x="2187.5" y="625" width="125" height="62.5" style="fill:#648df9;"/><rect x="2312.5" y="625" width="187.5" height="62.5" style="fill:#5a65fa;"/><rect x="2562.5" y="625" width="125" height="62.5" style="fill:#f78a18;"/><rect x="2687.5" y="625" width="625" height="62.5" style="fill:#ffb913;"/><rect x="3312.5" y="625" width="125" height="62.5" style="fill:#ffc925;"/><rect x="3500" y="625" width="187.5" height="62.5" style="fill:#5a65fa;"/><rect x="3687.5" y="625" width="125" height="62.5" style="fill:#648df9;"/><rect x="2187.5" y="687.5" width="125" height="62.5" style="fill:#648df9;"/><rect x="2312.5" y="687.5" width="187.5" height="62.5" style="fill:#5a65fa;"/><rect x="2562.5" y="687.5" width="125" height="62.5" style="fill:#f78a18;"/><rect x="2687.5" y="687.5" width="625" height="62.5" style="fill:#ffb913;"/><rect x="3312.5" y="687.5" width="125" height="62.5" style="fill:#ffc925;"/><rect x="3500" y="687.5" width="187.5" height="62.5" style="fill:#5a65fa;"/><rect x="3687.5" y="687.5" width="125" height="62.5" style="fill:#648df9;"/><rect x="2187.5" y="750" width="125" height="62.5" style="fill:#648df9;"/><rect x="2312.5" y="750" width="187.5" height="62.5" style="fill:#5a65fa;"/><rect x="2562.5" y="750" width="125" height="62.5" style="fill:#f78a18;"/><rect x="2687.5" y="750" width="625" height="62.5" style="fill:#ffb913;"/><rect x="3312.5" y="750" width="125" height="62.5" style="fill:#ffc925;"/><rect x="3500" y="750" width="187.5" height="62.5" style="fill:#5a65fa;"/><rect x="3687.5" y="750" width="125" height="62.5" style="fill:#648df9;"/><rect x="2187.5" y="812.5" width="125" height="62.5" style="fill:#eff2fa;"/><rect x="2312.5" y="812.5" width="250" height="62.5" style="fill:#abaaa8;"/><rect x="2562.5" y="812.5" width="125" height="62.5" style="fill:#f78a18;"/><rect x="2687.5" y="812.5" width="625" height="62.5" style="fill:#ffb913;"/><rect x="3312.5" y="812.5" width="125" height="62.5" style="fill:#ffc925;"/><rect x="3500" y="812.5" width="187.5" height="62.5" style="fill:#5a65fa;"/><rect x="3687.5" y="812.5" width="125" height="62.5" style="fill:#648df9;"/><rect x="2187.5" y="875" width="125" height="62.5" style="fill:#648df9;"/><rect x="2312.5" y="875" width="187.5" height="62.5" style="fill:#5a65fa;"/><rect x="2562.5" y="875" width="125" height="62.5" style="fill:#f78a18;"/><rect x="2687.5" y="875" width="625" height="62.5" style="fill:#ffb913;"/><rect x="3312.5" y="875" width="125" height="62.5" style="fill:#ffc925;"/><rect x="3437.5" y="875" width="250" height="62.5" style="fill:#abaaa8;"/><rect x="3687.5" y="875" width="125" height="62.5" style="fill:#eff2fa;"/><rect x="2187.5" y="937.5" width="125" height="62.5" style="fill:#648df9;"/><rect x="2312.5" y="937.5" width="187.5" height="62.5" style="fill:#5a65fa;"/><rect x="2562.5" y="937.5" width="125" height="62.5" style="fill:#f78a18;"/><rect x="2687.5" y="937.5" width="625" height="62.5" style="fill:#ffb913;"/><rect x="3312.5" y="937.5" width="125" height="62.5" style="fill:#ffc925;"/><rect x="3500" y="937.5" width="187.5" height="62.5" style="fill:#5a65fa;"/><rect x="3687.5" y="937.5" width="125" height="62.5" style="fill:#648df9;"/><rect x="2187.5" y="1000" width="125" height="62.5" style="fill:#648df9;"/><rect x="2312.5" y="1000" width="187.5" height="62.5" style="fill:#5a65fa;"/><rect x="2562.5" y="1000" width="125" height="62.5" style="fill:#f78a18;"/><rect x="2687.5" y="1000" width="625" height="62.5" style="fill:#ffb913;"/><rect x="3312.5" y="1000" width="125" height="62.5" style="fill:#ffc925;"/><rect x="3500" y="1000" width="187.5" height="62.5" style="fill:#5a65fa;"/><rect x="3687.5" y="1000" width="125" height="62.5" style="fill:#648df9;"/><rect x="2187.5" y="1062.5" width="125" height="62.5" style="fill:#648df9;"/><rect x="2312.5" y="1062.5" width="187.5" height="62.5" style="fill:#5a65fa;"/><rect x="2562.5" y="1062.5" width="125" height="62.5" style="fill:#f78a18;"/><rect x="2687.5" y="1062.5" width="625" height="62.5" style="fill:#ffb913;"/><rect x="3312.5" y="1062.5" width="125" height="62.5" style="fill:#ffc925;"/><rect x="3500" y="1062.5" width="187.5" height="62.5" style="fill:#5a65fa;"/><rect x="3687.5" y="1062.5" width="125" height="62.5" style="fill:#648df9;"/><rect x="2625" y="1125" width="750" height="62.5" style="fill:#343235;"/><rect x="3500" y="1125" width="187.5" height="62.5" style="fill:#5a65fa;"/><rect x="3687.5" y="1125" width="125" height="62.5" style="fill:#648df9;"/><rect x="2562.5" y="1187.5" width="125" height="62.5" style="fill:#f78a18;"/><rect x="2687.5" y="1187.5" width="625" height="62.5" style="fill:#ffb913;"/><rect x="3312.5" y="1187.5" width="125" height="62.5" style="fill:#ffc925;"/><rect x="2562.5" y="1250" width="125" height="62.5" style="fill:#f78a18;"/><rect x="2687.5" y="1250" width="625" height="62.5" style="fill:#ffb913;"/><rect x="3312.5" y="1250" width="125" height="62.5" style="fill:#ffc925;"/><rect x="2625" y="687.5" width="375" height="62.5"/><rect x="3062.5" y="687.5" width="375" height="62.5"/><rect x="2625" y="750" width="250" height="62.5"/><rect x="2875" y="750" width="62.5" height="62.5" style="fill:#fff;"/><rect x="2937.5" y="750" width="62.5" height="62.5"/><rect x="3062.5" y="750" width="250" height="62.5"/><rect x="3312.5" y="750" width="62.5" height="62.5" style="fill:#fff;"/><rect x="3375" y="750" width="62.5" height="62.5"/><rect x="2437.5" y="812.5" width="437.5" height="62.5"/><rect x="2875" y="812.5" width="62.5" height="62.5" style="fill:#fff;"/><rect x="2937.5" y="812.5" width="375" height="62.5"/><rect x="3312.5" y="812.5" width="62.5" height="62.5" style="fill:#fff;"/><rect x="3375" y="812.5" width="62.5" height="62.5"/><rect x="2437.5" y="875" width="62.5" height="62.5"/><rect x="2625" y="875" width="375" height="62.5"/><rect x="3062.5" y="875" width="375" height="62.5"/><rect x="2437.5" y="937.5" width="62.5" height="62.5"/><rect x="2625" y="937.5" width="375" height="62.5"/><rect x="3062.5" y="937.5" width="375" height="62.5"/><rect x="2625" y="1000" width="375" height="62.5"/><rect x="3062.5" y="1000" width="375" height="62.5"/></svg>