<?xml version="1.0" encoding="UTF-8" standalone="no"?><!DOCTYPE svg PUBLIC "-//W3C//DTD SVG 1.1//EN" "http://www.w3.org/Graphics/SVG/1.1/DTD/svg11.dtd"><svg width="100%" height="100%" viewBox="0 0 5080 3988" version="1.1" xmlns="http://www.w3.org/2000/svg" xmlns:xlink="http://www.w3.org/1999/xlink" xml:space="preserve" xmlns:serif="http://www.serif.com/" style="fill-rule:evenodd;clip-rule:evenodd;stroke-linejoin:round;stroke-miterlimit:2;"><g><path d="M4095.2,-0l909.482,220.064l-1247.88,3764.66l-909.482,-220.063l130.259,-392.971c-561.586,429.648 -1016.18,631.373 -1363.79,605.175c-164.194,-10.479 -398.59,-204.345 -703.19,-581.597c-304.599,-377.252 -445.683,-639.233 -423.251,-785.942c24.199,-136.23 302.026,-1006 833.484,-2609.33l901.623,220.064c-623.654,1802.43 -927.519,2758.66 -911.596,2868.69c56.162,146.709 199.03,193.865 428.602,141.469c229.572,-52.396 514.853,-201.725 855.843,-447.987c340.99,-246.261 622.99,-516.101 846.001,-809.519l653.901,-1972.71Z" style="fill:#fff;"/></g></svg>